PathFileType	4	(X/Y/Z)	72_2_55_p0_0-379_filt_butterworth.trc
DataRate	CameraRate	NumFrames	NumMarkers	Units	OrigDataRate	OrigDataStartFrame	OrigNumFrames
49.0	49.0	6	27	m	49.0	0	379
Frame#	Time	RHip			RKnee			RAnkle			RBigToe			RSmallToe			RHeel			LHip			LKnee			LAnkle			LBigToe			LSmallToe			LHeel			Neck			Head			Nose			RShoulder			RElbow			RWrist			RThumb			RIndex			RPinky			LShoulder			LElbow			LWrist			LThumb			LIndex			LPinky			
		X1	Y1	Z1	X2	Y2	Z2	X3	Y3	Z3	X4	Y4	Z4	X5	Y5	Z5	X6	Y6	Z6	X7	Y7	Z7	X8	Y8	Z8	X9	Y9	Z9	X10	Y10	Z10	X11	Y11	Z11	X12	Y12	Z12	X13	Y13	Z13	X14	Y14	Z14	X15	Y15	Z15	X16	Y16	Z16	X17	Y17	Z17	X18	Y18	Z18	X19	Y19	Z19	X20	Y20	Z20	X21	Y21	Z21	X22	Y22	Z22	X23	Y23	Z23	X24	Y24	Z24	X25	Y25	Z25	X26	Y26	Z26	X27	Y27	Z27	
0	0.0	0.23310242052219898	0.5023714645877203	0.6547486694898582	0.22420922079102765	0.5977080644166126	1.0914118859401052	0.17137538038442302	0.5903623712192123	1.4447157255583	0.1471696641181081	0.4424365750884587	1.4649882030019497	0.21215345758383752	0.45732157928274936	1.456807458510406	0.16819013169570982	0.6705009787753707	1.517027177479127	0.02941512591181033	0.526027374739542	0.6474819707514189	0.029496637292569156	0.534516093272064	1.0275931788053223	0.031279613106148615	0.6218443412149177	1.4402266778084305	0.0017449236578795761	0.45936296049019276	1.4456099897659518	-0.03552918373823505	0.48165901684958073	1.4400529415739602	0.04886841322215336	0.7032634155197253	1.5448689931800565	0.14010800737890197	0.5075210348079341	0.05430776942369956	0.14498917764050778	0.45844048853565444	-0.22175325648952626	0.11900558717782361	0.36492291367648233	-0.07345430743235519	0.315907179083268	0.47773066072236586	0.14567800885150894	0.2941717221568295	0.4017477258750049	0.40682735863603636	0.12228158049688438	0.3365055594619649	0.5570914715083184	0.06009944482690787	0.4022862489089373	0.5869067309642184	0.06139072719204331	0.4405518284745783	0.6607201665717137	0.05185770347617177	0.4137222390741213	0.667119345651185	-0.009713171900782261	0.6087592579388571	0.12337246770230795	-0.055456477491182155	0.5261985621440748	0.39447195928492595	0.0542276231572523	0.418990534827559	0.6003517754578763	0.14148074670207955	0.38068536628760935	0.6296670165147275	0.15578801601857403	0.43142627035326586	0.7053875211142944	0.10128620969056853	0.41214791102064935	0.7203996448721888
1	0.0204081632653061	0.2331822049748349	0.5041456878957693	0.65217409754428	0.2253831217471325	0.5976949039718154	1.0885907188597792	0.17144317965192135	0.5904802683728615	1.4445931518046018	0.1509838857852876	0.4511745940193894	1.464891546669694	0.21165038951810877	0.46846570987977537	1.4629871682920144	0.1682427975084497	0.6705358757112333	1.5170590063819425	0.02941380250826892	0.5265485281206558	0.6475700981732034	0.0295089882533525	0.5343657120408436	1.0274463896103314	0.031240754105368376	0.6217375671272183	1.4401227944209796	-5.3571355914091255e-05	0.46922719128830664	1.4515206326152628	-0.03764855107370224	0.49217753370264483	1.4461758052648153	0.04950603555295143	0.7022131904128565	1.5403084544727021	0.13891526952575667	0.5070620795320233	0.054158079287311325	0.14421253364094952	0.46591923049641815	-0.22174675066608474	0.11958563078456551	0.36409700513482746	-0.07133351126415048	0.3104343657547164	0.466202313817889	0.14291653031614152	0.2942959597930165	0.40206723643241876	0.4044469051385332	0.12242972746693541	0.3369076819587619	0.5571783130615952	0.05938056800086191	0.40003275789834164	0.5935755699186331	0.06861249682796022	0.4560411059085925	0.6713730401052053	0.05561304265493976	0.4268122717261592	0.6779629919908942	-0.011473249366032046	0.6047307007654164	0.12490114114354502	-0.05572484758061543	0.525761190833946	0.3881442676724264	0.05000025193979343	0.424781108394844	0.5995454113175562	0.13740460421384698	0.3832047249974514	0.6275978653421521	0.15506795347065583	0.44085439350622774	0.7045309929125	0.09975028590830887	0.41627097724982826	0.7234764256460472
2	0.0408163265306122	0.23294196432621084	0.5023937486162047	0.6498030768637864	0.2252222944564124	0.5971164051943281	1.0857078344124396	0.17145926282618176	0.5904824949959996	1.444500908965116	0.1514512634723868	0.45277735619913806	1.4640930041168647	0.21176326238539842	0.4698729172285042	1.46357460285786	0.16827007726881915	0.6705469270860097	1.5170489042338253	0.028376509810081108	0.5300469483675349	0.6485437700441986	0.02948309446833797	0.5340725946674452	1.02722774384144	0.031226116208154638	0.6216645229676422	1.440014377687615	-0.00027872476076542835	0.47060776412974054	1.4523858478037024	-0.03870640900608971	0.4973790750432836	1.4491969056206613	0.0497786215296184	0.7017609248858998	1.5380574335378339	0.13734716857717016	0.5077446754418031	0.05411924804925189	0.14268607332998243	0.47092701023263345	-0.22178137696163336	0.11887151653296354	0.3646706130584463	-0.07030091806953986	0.30498338120551727	0.45820951082547884	0.1416358526298029	0.2944029052892367	0.4020635138274598	0.40336488371041923	0.12139173445282642	0.33715651725961315	0.5587138180191074	0.05917989794837068	0.401787857899879	0.5987694465715225	0.0714260083235536	0.4605062570083794	0.6783295549674121	0.05792175344547275	0.4328918702265777	0.686004919005485	-0.013764918815786582	0.6038010916720172	0.12586099883831398	-0.056383112736518956	0.52654099871427	0.3841415390279106	0.045766467999973706	0.42817530347663085	0.5993049594770887	0.13411955242610515	0.3839326332258337	0.6260985848658767	0.15442739757778726	0.4453831446190486	0.7045778689473765	0.09744924030285607	0.4207890194849774	0.7261265276718806
3	0.0612244897959183	0.23186033434359937	0.49563250409129367	0.6466229108372983	0.22293149720064373	0.595472550154048	1.0807283116703796	0.17142737779469078	0.5903877011304299	1.4444057133330201	0.14931334094188747	0.4484958881450612	1.462265682870543	0.21230125317229914	0.4633007247825273	1.4596182344872979	0.1682869057400196	0.6705436247208217	1.5169466038071728	0.026182810406224236	0.5353360729733827	0.6500546608946918	0.029265328834723697	0.5335371087154768	1.0268551174149754	0.031215479158506882	0.6215649224946098	1.439911138764064	0.0007630313901546209	0.4651349070933779	1.449144709878953	-0.03880951907513423	0.49774952776345843	1.449425908505199	0.04979768650527133	0.7018912267599442	1.5379204873791692	0.13566487386898865	0.5110977762107788	0.05478364377615429	0.1386843058732782	0.4766272237009487	-0.22161398623587378	0.11533313451984659	0.3678678711012233	-0.07014869645198586	0.2997382214566076	0.45544145149658416	0.1410488761635272	0.2942826781742419	0.4030687000677199	0.40323794892255266	0.11954972939783741	0.33698234093971413	0.5603779422023968	0.05928777184710167	0.40622308773059346	0.6005225443967372	0.06991298357491874	0.4514361585814471	0.6802071878342024	0.05853151476166632	0.43109113747311245	0.689201212467032	-0.016202906160615902	0.6066239625163296	0.1267552494040236	-0.05776065498318557	0.5301097004856876	0.38511610220044834	0.04257624820195499	0.43074649779168084	0.5999571189899726	0.13297812096019226	0.38848275690579565	0.626798655854208	0.15384381301181366	0.4456181394695939	0.7056408009263488	0.09533557815229157	0.42406422322255	0.7269752820438833
4	0.0816326530612244	0.22998666229039214	0.4884115717033405	0.6432589152959559	0.21970929351591545	0.5935409067908083	1.0739941345652266	0.17139088029648203	0.5903116675956628	1.4442985528391956	0.147466663534036	0.4444188212874001	1.4604727273141889	0.2127033716000482	0.45727647251846326	1.4560393811261223	0.16831630988634827	0.6705398470196172	1.516774922911373	0.023937537726372124	0.538759383563362	0.6513178285140617	0.028607475286867336	0.533066315253535	1.0263988664926305	0.031176348400905298	0.6214101000563592	1.4398302079982332	0.0016966303206328965	0.4601839932088024	1.4461878962180592	-0.03865382386580543	0.49679486939054096	1.4489322363446528	0.04981107330434193	0.7021617654954642	1.5383914995999546	0.13419388174218838	0.517253888526359	0.05661798394717506	0.13239608045712503	0.48494842585743897	-0.2211174989011586	0.10951126445509538	0.37357621675065206	-0.07000110109645852	0.2950597415972666	0.4562421471641124	0.13981838876161345	0.2938027001066241	0.40676665130911543	0.40293502896550903	0.11825381206626435	0.33647538692061674	0.5608901269347234	0.06007485961589136	0.40916452263858827	0.6003024502353209	0.06769902705176607	0.43942098925759854	0.6811466255156482	0.05808368500570986	0.42717853157884866	0.6890560426464992	-0.018836382900180623	0.6087929623137553	0.12775649981694362	-0.0594349189061999	0.5355589903040179	0.3903548552092115	0.04098883074863996	0.4332073337576214	0.6007881625174374	0.13444008380336772	0.3986083100311357	0.6300044238255069	0.1534227566367358	0.4448319230972521	0.7071518814857745	0.09435484937070335	0.4253796172044041	0.7262043047074249
5	0.1020408163265306	0.22826915930851366	0.4864930697611556	0.6418434470434369	0.21782155817975107	0.5926797908175014	1.0692974179891543	0.17138121529781353	0.590315202430949	1.4442289546355938	0.14706931328194328	0.4432946746048605	1.4597830834965355	0.2128653702325372	0.4557310832395536	1.4550438407917963	0.16836145580348913	0.6705385767759292	1.5166412120633934	0.022665269835021297	0.5392431491553262	0.6524646203666695	0.02730571450167867	0.5329422500017991	1.026090232832822	0.031118866320228616	0.6212814896200451	1.4397970274587508	0.0019401234880530307	0.4588756158729697	1.4454175293956195	-0.03858633100305091	0.496370788609669	1.4487675912166065	0.04983386092083077	0.7022779800322145	1.5386637245315744	0.1328748829734104	0.5244887932765561	0.05877759046801413	0.126654787244903	0.4911165569966646	-0.22057009598981342	0.10380083721550563	0.3811026024430529	-0.06958547141492195	0.291052498040669	0.4577886648862449	0.13761728376777957	0.29319842120703576	0.4120041409087766	0.40194042811955144	0.11797884828980851	0.3361321694888292	0.5607686697919397	0.06247871048794938	0.41205038285680207	0.6034195802381072	0.0673989978090494	0.435436522682058	0.6853886279005131	0.05773125849558599	0.42591756098943756	0.6893039286538841	-0.02239932891592683	0.605140017940897	0.12803146118448266	-0.06044244053594251	0.539527114685233	0.3957724066174896	0.040524591102297274	0.43434850468268005	0.6010639319850992	0.13769674936621004	0.4075004316816105	0.6347273257368148	0.1533066363575109	0.4446716327405421	0.7081352690238134	0.09429082057975754	0.4257455714135626	0.7257855844407833
